<svg xmlns="http://www.w3.org/2000/svg" viewBox="-47.5 -47.5 1119.0 1119.0" width="1024" height="1024">
  <g id="skeleton-paths" stroke-width="45.0">
    <path id="path-0-0" d="M512.727 24.880L512.727 26.992L512.727 29.092L512.728 32.385L512.728 35.310L512.728 38.603L512.728 41.529L512.728 44.822L512.729 47.747L512.729 51.040L512.729 53.965L512.729 57.258L512.729 60.184L512.729 63.476L512.730 66.402L512.730 69.695L512.730 72.620L512.730 75.913L512.730 78.838L512.730 82.131L512.731 85.057L512.731 88.349L512.731 91.275L512.731 94.568L512.731 97.493L512.732 100.786L512.732 103.711L512.732 107.004L512.732 109.930L512.732 113.223L512.732 116.148L512.733 119.441L512.733 122.366L512.733 125.659L512.733 128.585L512.733 131.877L512.734 134.803L512.734 138.096L512.734 141.021L512.734 144.314L512.734 147.239L512.734 150.532L512.735 153.458L512.735 156.751L512.735 159.676L512.735 162.969L512.735 165.894L512.735 169.187L512.736 172.112L512.736 175.405L512.736 178.331L512.736 181.624L512.736 184.549L512.737 187.842L512.737 190.767L512.737 194.060L512.737 196.986L512.737 200.278L512.737 203.204L512.738 206.497L512.738 209.422L512.738 212.715L512.738 215.640L512.738 218.933L512.739 221.859L512.739 225.152L512.739 228.077L512.739 231.370L512.739 234.295L512.739 237.588L512.740 240.514L512.740 243.806L512.740 246.732L512.740 250.025L512.740 252.950L512.741 256.243L512.741 259.168L512.741 262.461L512.741 265.387L512.741 268.679L512.741 271.605L512.742 274.898L512.742 277.823L512.742 281.116L512.742 284.041L512.742 287.334L512.742 290.260L512.743 293.553L512.743 296.478L512.743 299.771L512.743 302.696L512.743 305.989L512.744 308.915L512.744 312.207L512.744 315.133L512.744 318.426L512.744 321.351L512.744 324.644L512.745 327.569L512.745 330.862L512.745 333.788L512.745 337.080L512.745 340.006L512.746 343.299L512.746 346.224L512.746 349.517L512.746 352.442L512.746 355.735L512.746 358.661L512.747 361.954L512.747 364.879L512.747 368.172L512.747 371.097L512.747 374.390L512.747 377.316L512.748 380.608L512.748 383.534L512.748 386.827L512.748 389.752L512.748 393.045L512.749 395.970L512.749 399.263L512.749 402.189L512.749 405.481L512.749 408.407L512.749 411.700L512.750 414.625L512.750 417.918L512.750 420.843L512.750 424.136L512.750 427.062L512.751 430.355L512.751 433.280L512.751 436.573L512.751 439.498L512.751 442.791L512.751 445.717L512.752 449.009L512.752 451.935L512.752 455.228L512.752 458.153L512.752 461.446L512.752 464.371L512.753 467.664L512.753 470.590L512.753 473.883L512.753 476.808L512.753 480.101L512.754 483.026L512.754 486.319L512.754 489.245L512.754 492.537L512.754 495.463L512.754 498.756L512.755 501.681L512.755 504.974L512.755 507.899L512.755 511.192L512.755 514.118L512.756 517.410L512.756 520.336L512.756 523.629L512.756 526.554L512.756 529.847L512.756 532.772L512.757 536.065L512.757 538.991L512.757 542.284L512.757 545.209L512.757 548.502L512.757 551.427L512.758 554.720L512.758 557.646L512.758 560.938L512.758 563.864L512.758 567.157L512.759 570.082L512.759 573.375L512.759 576.300L512.759 579.593L512.759 582.519L512.759 585.811L512.760 588.737L512.760 592.030L512.760 594.955L512.760 598.248L512.760 601.173L512.761 604.466L512.761 607.392L512.761 610.685L512.761 613.610L512.761 616.903L512.761 619.828L512.762 623.121L512.762 626.047L512.762 629.339L512.762 632.265L512.762 635.558L512.762 638.483L512.763 641.776L512.763 644.701L512.763 647.994L512.763 650.920L512.763 654.212L512.764 657.138L512.764 660.431L512.764 663.356L512.764 666.649L512.764 669.574L512.764 672.867L512.765 675.793L512.765 679.086L512.765 682.011L512.765 685.304L512.765 688.229L512.766 691.522L512.766 694.448L512.766 697.740L512.766 700.666L512.766 703.959L512.766 706.884L512.767 710.177L512.767 713.102L512.767 716.395L512.767 719.321L512.767 722.614L512.768 725.539L512.768 728.832L512.768 731.757L512.768 735.050L512.768 737.976L512.768 741.268L512.769 744.194L512.769 747.487L512.769 750.412L512.769 753.705L512.769 756.630L512.769 759.923L512.770 762.849L512.770 766.141L512.770 769.067L512.770 772.360L512.770 775.285L512.771 778.578L512.771 781.503L512.771 784.796L512.771 787.722L512.771 791.015L512.771 793.940L512.772 797.233L512.772 800.158L512.772 803.451L512.772 806.377L512.772 809.669L512.773 812.595L512.773 815.888L512.773 818.813L512.773 822.106L512.773 825.031L512.773 828.324L512.774 831.250L512.774 834.542L512.774 837.468L512.774 840.761L512.774 843.686L512.774 846.979L512.775 849.904L512.775 853.197L512.775 856.123L512.775 859.416L512.775 862.341L512.776 865.634L512.776 868.559L512.776 871.852L512.776 874.778L512.776 878.070L512.776 880.996L512.778 884.289L512.782 887.214L512.790 890.507L512.798 893.432L512.809 896.725L512.819 899.651L512.829 902.943L512.839 905.869L512.850 909.162L512.859 912.087L512.870 915.380L512.880 918.305L512.890 921.598L512.900 924.524L512.911 927.817L512.920 930.742L512.931 934.035L512.941 936.960L512.951 940.253L512.961 943.179L512.972 946.471L512.981 949.397L512.992 952.690L513.002 955.615L513.012 958.908L513.022 961.833L513.033 965.126L513.040 967.226L513.046 969.339" stroke="#000000" stroke-width="45" fill="none" stroke-linecap="round" stroke-linejoin="round"/>
    <path id="path-1-0" d="M486.535 994.013L488.445 996.165L492.590 1000.084" stroke="#000000" stroke-width="45" fill="none" stroke-linecap="round" stroke-linejoin="round"/>
    <path id="path-2-0" d="M177.311 685.395L178.962 687.046L181.308 689.391L184.234 692.316L187.528 695.608L190.454 698.533L193.747 701.825L196.673 704.750L199.967 708.042L202.893 710.967L206.186 714.259L209.112 717.184L212.405 720.477L215.331 723.402L218.625 726.694L221.551 729.619L224.844 732.911L227.770 735.836L231.064 739.128L233.990 742.053L237.283 745.345L240.209 748.270L243.502 751.562L246.428 754.487L249.722 757.780L252.648 760.704L255.941 763.997L258.867 766.922L262.161 770.214L265.087 773.139L268.380 776.431L271.306 779.356L274.599 782.648L277.525 785.573L280.819 788.865L283.745 791.790L287.038 795.082L289.964 798.007L293.258 801.300L296.184 804.224L299.477 807.517L302.403 810.442L305.696 813.734L308.622 816.659L311.916 819.951L314.842 822.876L318.135 826.168L321.061 829.093L324.355 832.385L327.281 835.310L330.574 838.602L333.500 841.527L336.793 844.820L339.719 847.745L343.013 851.037L345.939 853.962L349.232 857.254L352.158 860.179L355.452 863.471L358.378 866.396L361.671 869.688L364.597 872.613L367.890 875.905L370.816 878.830L374.110 882.123L377.036 885.047L380.329 888.340L383.255 891.265L386.549 894.557L389.475 897.482L392.768 900.774L395.694 903.699L398.987 906.991L401.913 909.916L405.207 913.208L408.133 916.133L411.426 919.425L414.352 922.350L417.646 925.643L420.572 928.568L423.865 931.860L426.791 934.785L430.084 938.077L433.010 941.002L436.304 944.294L439.230 947.219L442.523 950.511L445.449 953.436L448.743 956.728L451.669 959.653L454.962 962.946L457.888 965.870L461.181 969.163L464.108 972.087L467.416 975.364L470.374 978.257L472.762 980.561L474.452 982.172" stroke="#000000" stroke-width="45" fill="none" stroke-linecap="round" stroke-linejoin="round"/>
    <path id="path-3-0" d="M551.046 983.108L552.699 981.459L555.047 979.116L557.975 976.194L561.272 972.904L564.200 969.982L567.497 966.693L570.426 963.771L573.722 960.481L576.651 957.559L579.947 954.270L582.876 951.348L586.172 948.058L589.101 945.136L592.397 941.847L595.326 938.925L598.622 935.635L601.551 932.713L604.847 929.424L607.776 926.501L611.072 923.212L614 920.290L617.297 917L620.226 914.078L623.522 910.789L626.451 907.867L629.752 904.573L632.696 901.634L635.906 898.429L638.622 895.718L641.564 892.782L644.204 890.148L647.369 886.992L650.286 884.083L653.611 880.768L656.544 877.850L659.850 874.570L662.791 871.661L666.104 868.388L669.049 865.482L672.364 862.212L675.309 859.306L678.624 856.035L681.569 853.129L684.907 849.833L687.832 846.944L691.001 843.814L693.649 841.199L696.608 838.279L699.350 835.577L702.588 832.383L705.552 829.452L708.865 826.166L711.798 823.248L715.096 819.960L718.025 817.039L721.322 813.750L724.252 810.828L727.549 807.540L730.478 804.618L733.775 801.330L736.704 798.408L740.001 795.119L742.930 792.197L746.227 788.909L749.157 785.987L752.454 782.699L755.383 779.777L758.680 776.488L761.609 773.566L764.906 770.278L767.835 767.356L771.132 764.068L774.061 761.146L777.358 757.857L780.288 754.936L783.585 751.647L786.514 748.725L789.811 745.437L792.740 742.515L796.038 739.227L798.970 736.308L802.273 733.025L805.209 730.111L808.516 726.832L811.453 723.918L814.760 720.639L817.698 717.726L821.004 714.447L823.942 711.534L827.249 708.255L830.187 705.342L833.493 702.063L836.431 699.150L839.738 695.871L842.675 692.958L845.031 690.622L846.689 688.978" stroke="#000000" stroke-width="45" fill="none" stroke-linecap="round" stroke-linejoin="round"/>
    <path id="path-connection-1" d="M486.535 994.013L474.452 982.172" stroke="#000000" stroke-width="45" fill="none" stroke-linecap="round" stroke-linejoin="round"/>
    <path id="path-connection-2" d="M513.046 969.339L513.431 1020" stroke="#000000" stroke-width="45" fill="none" stroke-linecap="round" stroke-linejoin="round"/>
    <path id="path-connection-3" d="M492.590 1000.084L513.431 1020" stroke="#000000" stroke-width="45" fill="none" stroke-linecap="round" stroke-linejoin="round"/>
    <path id="path-connection-4" d="M551.046 983.108L513.431 1020" stroke="#000000" stroke-width="45" fill="none" stroke-linecap="round" stroke-linejoin="round"/>
  </g>
</svg>