<svg xmlns="http://www.w3.org/2000/svg" viewBox="-47.5 -47.5 1119.0 1119.0" width="1024" height="1024">
  <g id="skeleton-paths" stroke-width="45.0">
    <path id="path-0-0" d="M79.490 453.858L83.686 449.666L88.642 444.715L95.575 437.789L102.507 430.863L109.440 423.937L116.372 417.012L123.305 410.086L130.237 403.160L137.170 396.234L144.102 389.308L151.035 382.383L157.967 375.457L164.900 368.531L171.832 361.605L178.765 354.679L185.697 347.754L192.630 340.828L199.563 333.902L206.495 326.976L213.428 320.050L220.360 313.125L227.293 306.199L234.225 299.273L241.158 292.347L248.090 285.421L255.023 278.496L261.955 271.570L268.888 264.644L275.820 257.718L282.753 250.792L289.685 243.867L296.618 236.941L303.550 230.015L310.483 223.089L317.415 216.163L324.348 209.238L331.281 202.312L338.213 195.386L345.146 188.460L352.078 181.534L359.011 174.608L365.943 167.683L372.876 160.757L379.808 153.831L386.739 146.904L393.665 139.971L400.582 133.030L407.489 126.079L414.390 119.121L421.288 112.161L428.186 105.200L433.117 100.224L437.292 96.011" stroke="#000000" stroke-width="45" fill="none" stroke-linecap="round" stroke-linejoin="round"/>
    <path id="path-1-0" d="M71.992 597.392L74.344 599.748L76.682 602.090L80.348 605.763L83.605 609.026L87.271 612.698L90.528 615.961L94.194 619.634L97.451 622.897L101.117 626.570L104.374 629.832L108.039 633.505L111.296 636.768L114.958 640.435L118.201 643.680L121.719 647.198L124.739 650.219L128.041 653.523L131.070 656.557L134.600 660.089L137.853 663.339L141.523 667.003L144.787 670.260L148.460 673.925L151.723 677.182L155.396 680.847L158.659 684.104L162.332 687.769L165.595 691.026L169.268 694.692L172.531 697.948L176.204 701.614L179.468 704.870L183.141 708.536L186.404 711.792L190.077 715.458L193.340 718.715L197.013 722.380L200.276 725.637L203.949 729.302L207.212 732.559L210.885 736.224L214.149 739.481L217.822 743.147L221.085 746.403L224.758 750.069L228.021 753.325L231.694 756.991L234.957 760.247L238.630 763.913L241.893 767.169L245.566 770.835L248.830 774.092L252.503 777.757L255.766 781.014L259.439 784.679L262.702 787.936L266.375 791.601L269.638 794.858L273.311 798.524L276.574 801.780L280.247 805.446L283.511 808.702L287.184 812.368L290.447 815.624L294.120 819.290L297.383 822.547L301.056 826.212L304.319 829.469L307.992 833.134L311.255 836.391L314.928 840.056L318.192 843.313L321.865 846.978L325.128 850.235L328.801 853.901L332.064 857.157L335.737 860.823L339 864.079L342.673 867.745L345.936 871.001L349.609 874.667L352.872 877.924L356.546 881.589L359.809 884.846L363.482 888.511L366.745 891.768L370.418 895.433L373.681 898.690L377.354 902.356L380.617 905.612L384.290 909.278L387.553 912.534L391.227 916.200L394.490 919.456L398.163 923.122L401.426 926.378L405.099 930.044L408.366 933.297L412.060 936.941L415.366 940.155L419.113 943.747L422.458 946.922L426.221 950.497L429.551 953.686L433.282 957.294L436.578 960.518L439.218 963.106L441.071 964.932" stroke="#000000" stroke-width="45" fill="none" stroke-linecap="round" stroke-linejoin="round"/>
    <path id="path-2-0" d="M107.843 527.101L112.036 527.192L116.990 527.278L123.919 527.369L130.848 527.411L137.778 527.425L144.707 527.425L151.636 527.425L158.565 527.426L165.494 527.426L172.423 527.426L179.353 527.427L186.282 527.427L193.211 527.427L200.140 527.428L207.069 527.428L213.998 527.429L220.928 527.429L227.857 527.429L234.786 527.430L241.715 527.430L248.644 527.430L255.573 527.431L262.503 527.431L269.432 527.431L276.361 527.432L283.290 527.432L290.219 527.432L297.148 527.433L304.078 527.433L311.007 527.433L317.936 527.434L324.865 527.434L331.794 527.435L338.723 527.435L345.653 527.435L352.582 527.436L359.511 527.436L366.440 527.436L373.369 527.437L380.298 527.437L387.228 527.437L394.157 527.438L401.086 527.438L408.015 527.438L414.944 527.439L421.873 527.439L428.803 527.440L435.732 527.440L442.661 527.440L449.590 527.441L456.519 527.441L463.448 527.441L470.378 527.442L477.307 527.442L484.236 527.442L491.165 527.443L498.094 527.443L505.023 527.443L511.953 527.444L518.882 527.444L525.811 527.444L532.740 527.445L539.669 527.445L546.598 527.446L553.528 527.446L560.457 527.446L567.386 527.447L574.315 527.447L581.244 527.447L588.173 527.448L595.103 527.448L602.032 527.448L608.961 527.449L615.890 527.449L622.819 527.449L629.748 527.450L636.678 527.450L643.607 527.451L650.536 527.451L657.465 527.451L664.394 527.452L671.323 527.452L678.252 527.452L685.182 527.453L692.111 527.453L699.040 527.453L705.969 527.454L712.898 527.454L719.827 527.454L726.757 527.455L733.686 527.455L740.615 527.455L747.544 527.456L754.473 527.456L761.402 527.457L768.332 527.457L775.261 527.457L782.190 527.458L789.119 527.458L796.048 527.458L802.977 527.459L809.907 527.459L816.836 527.459L823.765 527.460L830.694 527.460L837.623 527.460L844.552 527.461L851.482 527.461L858.411 527.462L865.340 527.462L872.269 527.462L879.198 527.463L886.127 527.463L893.057 527.463L899.986 527.464L906.915 527.464L913.844 527.464L920.773 527.465L927.702 527.465L934.632 527.465L941.561 527.466L948.490 527.466L955.419 527.466L962.348 527.467L969.277 527.467L976.207 527.468L983.136 527.468L990.065 527.468L996.994 527.469L1003.923 527.465L1010.852 527.470L1015.806 527.470L1020 527.491" stroke="#000000" stroke-width="45" fill="none" stroke-linecap="round" stroke-linejoin="round"/>
    <path id="path-extension-1" d="M79.490 453.858L8.338 524.942" stroke="#000000" stroke-width="45" fill="none" stroke-linecap="round" stroke-linejoin="round"/>
    <path id="path-extension-2" d="M71.992 597.392L4 529.275" stroke="#000000" stroke-width="45" fill="none" stroke-linecap="round" stroke-linejoin="round"/>
    <path id="path-extension-3" d="M107.843 527.101L8.338 524.942" stroke="#000000" stroke-width="45" fill="none" stroke-linecap="round" stroke-linejoin="round"/>
    <path id="path-connection-1" d="M8.338 524.942L8.338 524.942" stroke="#000000" stroke-width="45" fill="none" stroke-linecap="round" stroke-linejoin="round"/>
  </g>
</svg>