<svg xmlns="http://www.w3.org/2000/svg" viewBox="-47.5 -47.5 1119.0 1119.0" width="1024" height="1024">
  <g id="skeleton-paths" stroke-width="45.0">
    <path id="path-0-0" d="M593.123 107.430L595.231 109.521L597.083 111.342L600.104 114.313L602.830 116.994L605.969 120.097L608.753 122.858L611.789 125.867L614.574 128.628L617.820 131.844L620.807 134.806L624.173 138.143L627.164 141.109L630.531 144.447L633.523 147.413L636.890 150.752L639.881 153.718L643.248 157.057L646.239 160.023L649.606 163.361L652.597 166.328L655.964 169.666L658.956 172.632L662.323 175.971L665.314 178.937L668.681 182.276L671.672 185.242L675.039 188.580L678.031 191.546L681.398 194.884L684.391 197.849L687.761 201.185L690.755 204.148L694.126 207.482L697.121 210.445L700.492 213.779L703.487 216.742L706.858 220.076L709.853 223.039L713.224 226.373L716.219 229.336L719.590 232.670L722.585 235.633L725.956 238.968L728.951 241.930L732.322 245.265L735.317 248.227L738.688 251.562L741.683 254.524L745.051 257.856L748.036 260.809L751.277 264.013L754.058 266.764L757.092 269.765L759.870 272.513L763.106 275.715L766.089 278.666L769.457 281.997L772.452 284.960L775.822 288.295L778.817 291.258L782.187 294.593L785.182 297.556L788.552 300.891L791.547 303.854L794.917 307.189L797.911 310.152L801.282 313.487L804.276 316.450L807.646 319.786L810.641 322.749L814.011 326.084L817.006 329.047L820.376 332.382L823.370 335.345L826.741 338.680L829.735 341.643L833.105 344.979L836.100 347.942L839.470 351.277L842.465 354.240L845.835 357.575L848.829 360.538L852.200 363.873L855.194 366.836L858.565 370.171L861.560 373.134L864.932 376.467L867.930 379.427L871.305 382.757L874.304 385.716L877.679 389.046L880.678 392.004L884.054 395.334L887.053 398.293L890.428 401.623L893.427 404.581L896.803 407.911L899.802 410.870L903.176 414.198L906.169 417.148L909.420 420.351L912.211 423.099L915.250 426.094L918.029 428.834L921.267 432.026L924.254 434.968L927.630 438.289L930.633 441.243L934.014 444.568L937.017 447.522L940.398 450.847L943.401 453.801L945.809 456.170L947.504 457.837" stroke="#000000" stroke-width="45" fill="none" stroke-linecap="round" stroke-linejoin="round"/>
    <path id="path-1-0" d="M972.323 482.426L974.469 484.536" stroke="#000000" stroke-width="45" fill="none" stroke-linecap="round" stroke-linejoin="round"/>
    <path id="path-2-0" d="M4 527.959L5.681 527.959L8.069 527.959L11.048 527.958L14.401 527.958L17.380 527.957L20.732 527.957L23.711 527.956L27.064 527.956L30.043 527.955L33.395 527.955L36.374 527.955L39.727 527.954L42.706 527.954L46.058 527.953L49.037 527.953L52.390 527.952L55.369 527.952L58.721 527.951L61.700 527.951L65.053 527.951L68.032 527.950L71.384 527.950L74.363 527.949L77.716 527.949L80.695 527.948L84.047 527.948L87.026 527.947L90.379 527.947L93.358 527.947L96.710 527.946L99.689 527.946L103.042 527.945L106.021 527.945L109.373 527.944L112.352 527.944L115.705 527.943L118.684 527.943L122.036 527.943L125.015 527.942L128.368 527.942L131.347 527.941L134.699 527.941L137.678 527.940L141.031 527.940L144.010 527.939L147.362 527.939L150.341 527.939L153.694 527.938L156.673 527.938L160.025 527.937L163.004 527.937L166.357 527.936L169.336 527.936L172.688 527.935L175.667 527.935L179.020 527.934L181.999 527.934L185.351 527.934L188.330 527.933L191.683 527.933L194.662 527.932L198.014 527.932L200.993 527.931L204.346 527.931L207.325 527.930L210.677 527.930L213.656 527.930L217.009 527.929L219.988 527.929L223.340 527.928L226.319 527.928L229.672 527.927L232.651 527.927L236.003 527.926L238.982 527.926L242.335 527.926L245.314 527.925L248.666 527.925L251.645 527.924L254.998 527.924L257.977 527.923L261.329 527.923L264.308 527.922L267.661 527.922L270.640 527.922L273.992 527.921L276.971 527.921L280.324 527.920L283.303 527.920L286.655 527.919L289.634 527.919L292.987 527.918L295.966 527.918L299.318 527.917L302.297 527.917L305.650 527.917L308.628 527.916L311.981 527.916L314.960 527.915L318.313 527.915L321.291 527.914L324.644 527.914L327.623 527.913L330.976 527.913L333.954 527.913L337.307 527.912L340.286 527.912L343.639 527.911L346.617 527.911L349.970 527.910L352.949 527.910L356.302 527.909L359.280 527.909L362.633 527.909L365.612 527.908L368.965 527.908L371.943 527.907L375.296 527.907L378.275 527.906L381.628 527.906L384.606 527.905L387.959 527.905L390.938 527.905L394.291 527.904L397.269 527.904L400.622 527.903L403.601 527.903L406.954 527.902L409.932 527.902L413.285 527.901L416.264 527.901L419.617 527.900L422.595 527.900L425.948 527.900L428.927 527.899L432.280 527.899L435.258 527.898L438.611 527.898L441.590 527.897L444.943 527.897L447.921 527.896L451.274 527.896L454.253 527.896L457.606 527.895L460.584 527.895L463.937 527.894L466.916 527.894L470.269 527.893L473.247 527.893L476.600 527.892L479.579 527.892L482.932 527.892L485.910 527.891L489.263 527.891L492.242 527.890L495.595 527.890L498.573 527.889L501.926 527.889L504.905 527.888L508.258 527.888L511.236 527.888L514.589 527.887L517.568 527.887L520.921 527.886L523.899 527.886L527.252 527.885L530.231 527.885L533.584 527.884L536.562 527.884L539.915 527.884L542.894 527.883L546.247 527.883L549.225 527.882L552.578 527.882L555.557 527.881L558.910 527.881L561.888 527.880L565.241 527.880L568.220 527.880L571.573 527.879L574.551 527.879L577.904 527.878L580.883 527.878L584.236 527.877L587.214 527.877L590.567 527.876L593.546 527.876L596.899 527.875L599.877 527.875L603.230 527.875L606.209 527.874L609.562 527.874L612.540 527.873L615.893 527.873L618.872 527.872L622.225 527.872L625.203 527.871L628.556 527.871L631.535 527.871L634.888 527.870L637.866 527.870L641.219 527.869L644.198 527.869L647.551 527.868L650.529 527.868L653.882 527.867L656.861 527.867L660.214 527.867L663.192 527.866L666.545 527.866L669.524 527.865L672.877 527.865L675.855 527.864L679.208 527.864L682.187 527.863L685.540 527.863L688.518 527.863L691.871 527.862L694.850 527.862L698.203 527.861L701.181 527.861L704.534 527.860L707.513 527.860L710.866 527.859L713.844 527.859L717.197 527.858L720.176 527.858L723.529 527.858L726.507 527.857L729.860 527.857L732.839 527.856L736.192 527.856L739.170 527.855L742.523 527.855L745.502 527.854L748.855 527.854L751.833 527.854L755.186 527.853L758.165 527.853L761.518 527.852L764.496 527.852L767.849 527.851L770.828 527.851L774.181 527.850L777.159 527.850L780.512 527.850L783.491 527.849L786.844 527.849L789.822 527.848L793.175 527.848L796.154 527.847L799.507 527.847L802.485 527.846L805.838 527.837L808.817 527.816L812.170 527.774L815.148 527.725L818.501 527.665L821.480 527.612L824.833 527.552L827.811 527.499L831.164 527.455L834.143 527.444L837.496 527.478L840.474 527.543L843.827 527.543L846.806 527.453L850.159 527.254L853.137 527.109L856.491 527.046L859.471 527.077L862.915 527.080L865.976 527.082L869.418 527.041L872.215 527.019L875.415 526.890L878.166 526.699L881.596 526.538L885.372 526.434L890.169 526.446L895.312 526.387L900.049 526.331L903.730 526.236L907.061 526.119L909.859 526.005L913.294 525.845L916.340 525.749L918.954 525.686L920.849 525.679" stroke="#000000" stroke-width="45" fill="none" stroke-linecap="round" stroke-linejoin="round"/>
    <path id="path-3-0" d="M591.705 954.831L595.336 951.517L599.688 947.366L605.667 941.582L611.787 935.522L617.979 929.354L624.303 923.054L630.647 916.735L636.990 910.415L643.333 904.095L649.676 897.775L656.019 891.455L662.363 885.136L668.706 878.816L675.049 872.496L681.371 866.199L687.559 860.035L693.656 853.963L699.655 847.986L705.804 841.858L712.043 835.641L718.395 829.311L724.738 822.991L731.081 816.672L737.424 810.352L743.768 804.032L750.110 797.712L756.447 791.385L762.774 785.049L769.088 778.700L775.394 772.343L781.706 765.974L787.906 759.720L794.018 753.556L799.979 747.542L806.043 741.435L812.210 735.249L818.526 728.945L824.874 722.630L831.226 716.319L837.557 710.032L843.754 703.878L849.866 697.822L855.897 691.878L862.107 685.809L868.434 679.679L874.887 673.449L881.320 667.220L887.710 660.980L893.941 654.840L900.063 648.773L906.067 642.802L912.210 636.687L918.441 630.480L924.788 624.157L931.132 617.838L937.476 611.519L943.820 605.200L948.355 600.682L952.195 596.858" stroke="#000000" stroke-width="45" fill="none" stroke-linecap="round" stroke-linejoin="round"/>
    <path id="path-extension-1" d="M974.469 484.536L1015.951 525.335" stroke="#000000" stroke-width="45" fill="none" stroke-linecap="round" stroke-linejoin="round"/>
    <path id="path-extension-2" d="M920.849 525.679L1015.951 525.335" stroke="#000000" stroke-width="45" fill="none" stroke-linecap="round" stroke-linejoin="round"/>
    <path id="path-extension-3" d="M952.195 596.858L1020 529.318" stroke="#000000" stroke-width="45" fill="none" stroke-linecap="round" stroke-linejoin="round"/>
    <path id="path-connection-1" d="M947.504 457.837L972.323 482.426" stroke="#000000" stroke-width="45" fill="none" stroke-linecap="round" stroke-linejoin="round"/>
    <path id="path-connection-2" d="M1015.951 525.335L1015.951 525.335" stroke="#000000" stroke-width="45" fill="none" stroke-linecap="round" stroke-linejoin="round"/>
  </g>
</svg>