<svg xmlns="http://www.w3.org/2000/svg" viewBox="-47.5 -47.5 1119.0 1119.0" width="1024" height="1024">
  <g id="skeleton-paths" stroke-width="45.0">
    <path id="path-0-0" d="M511.115 483.745L511.115 482.458L511.116 480.631L511.118 478.352L511.119 475.787L511.120 473.508L511.122 470.943L511.123 468.664L511.125 466.098L511.126 463.819L511.127 461.254L511.129 458.975L511.130 456.410L511.131 454.131L511.133 451.566L511.134 449.287L511.136 446.722L511.137 444.443L511.138 441.877L511.140 439.598L511.141 437.033L511.142 434.754L511.144 432.189L511.145 429.910L511.146 427.345L511.148 425.066L511.149 422.501L511.151 420.222L511.152 417.656L511.153 415.377L511.155 412.812L511.156 410.533L511.157 407.968L511.159 405.689L511.160 403.124L511.161 400.845L511.163 398.279L511.164 396L511.166 393.435L511.167 391.156L511.168 388.591L511.170 386.312L511.171 383.747L511.172 381.468L511.174 378.903L511.175 376.624L511.177 374.058L511.178 371.779L511.179 369.214L511.181 366.935L511.182 364.370L511.183 362.091L511.185 359.526L511.186 357.247L511.188 354.682L511.189 352.403L511.190 349.837L511.192 347.558L511.193 344.993L511.194 342.714L511.196 340.149L511.197 337.870L511.199 335.305L511.200 333.026L511.201 330.461L511.203 328.182L511.204 325.616L511.205 323.337L511.207 320.772L511.208 318.493L511.210 315.928L511.211 313.649L511.212 311.084L511.214 308.805L511.215 306.239L511.216 303.960L511.218 301.395L511.219 299.116L511.220 296.551L511.222 294.272L511.223 291.707L511.225 289.428L511.226 286.863L511.227 284.584L511.229 282.018L511.230 279.739L511.231 277.174L511.233 274.895L511.234 272.330L511.235 270.051L511.237 267.486L511.238 265.207L511.240 262.642L511.241 260.363L511.242 257.797L511.244 255.518L511.245 252.953L511.246 250.674L511.248 248.109L511.249 245.830L511.251 243.265L511.252 240.986L511.253 238.421L511.255 236.142L511.256 233.576L511.257 231.297L511.259 228.732L511.260 226.453L511.262 223.888L511.263 221.609L511.264 219.044L511.266 216.765L511.267 214.199L511.268 211.920L511.270 209.355L511.271 207.076L511.273 204.511L511.274 202.232L511.275 199.667L511.277 197.388L511.278 194.823L511.279 192.544L511.281 189.978L511.282 187.699L511.284 185.134L511.285 182.855L511.286 180.290L511.288 178.011L511.289 175.446L511.290 173.167L511.292 170.602L511.293 168.323L511.294 165.757L511.296 163.478L511.297 160.913L511.299 158.634L511.300 156.069L511.301 153.790L511.303 151.225L511.304 148.946L511.305 146.381L511.307 144.102L511.308 141.536L511.309 139.257L511.311 136.692L511.312 134.413L511.314 131.848L511.315 129.569L511.316 127.004L511.318 124.725L511.319 122.159L511.320 119.880L511.322 117.315L511.323 115.036L511.325 112.471L511.326 110.192L511.327 107.627L511.329 105.348L511.330 102.783L511.331 100.504L511.333 97.938L511.334 95.659L511.336 93.094L511.337 90.815L511.338 88.250L511.340 85.971L511.341 83.406L511.342 81.127L511.344 78.562L511.345 76.283L511.347 73.717L511.348 71.438L511.349 68.873L511.351 66.594L511.352 64.029L511.353 61.750L511.355 59.185L511.356 56.906L511.358 54.341L511.359 52.062L511.360 49.496L511.362 47.217L511.363 44.652L511.364 42.373L511.366 39.808L511.367 37.529L511.368 34.964L511.370 32.685L511.371 30.119L511.372 27.840L511.374 25.275L511.375 22.996L511.377 20.431L511.378 18.152L511.379 15.587L511.381 13.308L511.382 10.743L511.383 9.107L511.384 7.461" stroke="#000000" stroke-width="45" fill="none" stroke-linecap="round" stroke-linejoin="round"/>
  </g>
  <g id="skeleton-paths" stroke-width="45.0">
    <path id="path-0-0" d="M288.156 202.959L286.339 203.988L284.556 205.019L281.874 206.582L279.473 208.006L276.802 209.602L274.450 211.018L271.775 212.634L269.055 214.298L265.371 216.592L261.194 219.273L256.894 222.109L253.117 224.682L250.196 226.723L247.574 228.592L245.311 230.232L242.880 232.027L240.659 233.703L238.116 235.658L235.382 237.799L232.247 240.284L229.126 242.807L226.435 245.025L223.890 247.175L221.638 249.111L218.963 251.436L216.192 253.879L213.107 256.627L210.050 259.397L207.339 261.887L204.645 264.404L202.312 266.618L199.703 269.140L197.414 271.408L194.867 273.992L192.627 276.309L190.121 278.934L187.915 281.273L185.412 283.979L182.954 286.707L180.236 289.780L177.626 292.780L175.361 295.413L173.201 297.972L171.287 300.286L169.168 302.891L167.302 305.224L165.273 307.790L163.425 310.156L161.373 312.805L159.577 315.157L157.712 317.639L156.071 319.863L154.289 322.305L152.645 324.579L150.762 327.209L148.768 330.049L146.613 333.155L144.513 336.240L142.781 338.803L141.049 341.404L139.535 343.694L137.841 346.304L136.340 348.669L134.744 351.246L133.300 353.626L131.710 356.277L130.098 359.001L128.324 362.022L126.559 365.081L124.971 367.872L123.446 370.618L122.108 373.072L120.641 375.796L119.162 378.591L117.545 381.685L115.908 384.899L114.303 388.118L112.716 391.373L111.207 394.521L109.934 397.207L108.758 399.757L107.830 401.799L106.714 404.318L105.727 406.574L104.540 409.342L103.532 411.722L102.443 414.335L101.523 416.560L100.529 419.029L99.696 421.134L98.729 423.659L97.928 425.784L96.950 428.432L96.170 430.580L95.215 433.278L94.413 435.610L93.448 438.478L92.654 440.899L91.808 443.521L91.133 445.664L90.365 448.114L89.700 450.281L88.930 452.825L88.281 455.027L87.542 457.589L86.923 459.773L86.186 462.426L85.577 464.650L84.866 467.296L84.281 469.506L83.604 472.113L83.040 474.334L82.406 476.916L81.885 479.112L81.273 481.773L80.773 483.997L80.188 486.638L79.722 488.789L79.176 491.377L78.729 493.575L78.209 496.211L77.787 498.411L77.303 501.023L76.906 503.227L76.443 505.859L76.057 508.085L75.622 510.670L75.268 512.889L74.881 515.446L74.558 517.708L74.199 520.319L73.892 522.619L73.560 525.188L73.284 527.371L72.973 529.932L72.716 532.149L72.420 534.805L72.182 537.059L71.915 539.692L71.703 541.963L71.477 544.612L71.302 546.924L71.121 549.574L70.986 551.782L70.844 554.326L70.737 556.495L70.628 559.073L70.549 561.342L70.474 563.933L70.418 566.212L70.360 568.777L70.316 571.056L70.277 573.622L70.257 575.901L70.250 578.466L70.254 580.745L70.261 583.310L70.269 585.589L70.287 588.154L70.312 590.433L70.354 592.998L70.398 595.277L70.455 597.843L70.515 600.122L70.611 602.687L70.724 604.966L70.878 607.531L71.030 609.810L71.204 612.375L71.359 614.654L71.551 617.211L71.737 619.429L71.978 621.921L72.189 624.022L72.452 626.557L72.681 628.758L72.981 631.474L73.232 633.684L73.555 636.328L73.833 638.513L74.202 641.223L74.512 643.424L74.899 646.061L75.228 648.235L75.655 650.940L76.011 653.133L76.454 655.761L76.830 657.925L77.320 660.617L77.729 662.804L78.237 665.423L78.666 667.583L79.219 670.275L79.674 672.438L80.243 675.043L80.702 677.095L81.341 679.866L82.008 682.675L82.943 686.478L83.899 690.243L84.878 693.973L85.659 696.874L86.415 699.603L87.017 701.730L87.768 704.311L88.569 706.969L89.744 710.768L91.128 715.079L92.729 719.915L94.367 724.682L95.845 728.870L97.199 732.569L98.187 735.205L99.214 737.876L100.052 740.028L101.162 742.837L102.362 745.787L103.932 749.559L105.493 753.221L107.008 756.717L108.177 759.361L109.410 762.094L110.472 764.393L111.728 767.064L112.763 769.216L113.975 771.723L115.058 773.924L116.286 776.403L117.451 778.704L118.789 781.314L120.094 783.806L121.528 786.510L122.861 788.981L124.370 791.724L125.936 794.510L127.684 797.570L129.441 800.611L131.049 803.358L132.638 806.032L134.084 808.418L135.720 811.072L137.526 813.926L139.846 817.530L142.576 821.684L145.381 825.889L147.956 829.662L149.992 832.584L151.858 835.203L153.492 837.467L155.275 839.914L156.934 842.162L158.747 844.580L160.431 846.788L162.342 849.259L164.171 851.604L166.329 854.333L168.339 856.834L170.557 859.533L172.480 861.831L174.592 864.326L176.540 866.610L178.831 869.255L180.963 871.673L183.393 874.365L185.562 876.727L187.925 879.276L189.961 881.454L192.206 883.824L194.287 885.987L196.650 888.396L198.767 890.526L201.083 892.827L203.205 894.914L205.697 897.324L208.019 899.527L210.673 901.994L213.051 904.174L215.744 906.612L218.149 908.764L220.779 911.081L223.051 913.049L225.537 915.169L227.826 917.092L230.509 919.312L232.992 921.329L235.783 923.561L238.526 925.714L241.540 928.054L244.552 930.361L247.241 932.388L249.826 934.302L252.088 935.944L254.548 937.710L256.825 939.326L259.300 941.061L261.593 942.642L264.248 944.438L267.054 946.303L270.239 948.399L273.358 950.421L276.138 952.201L278.782 953.856L281.160 955.315L283.754 956.885L286.154 958.320L288.841 959.908L291.605 961.508L294.666 963.255L297.823 965.014L300.975 966.740L304.159 968.453L307.340 970.134L310.060 971.555L312.722 972.913L314.829 973.967L317.492 975.275L319.770 976.384L322.453 977.673L324.588 978.680L327.279 979.919L329.584 980.961L332.294 982.172L334.468 983.129L337.126 984.281L339.410 985.258L342.053 986.365L344.149 987.230L346.732 988.271L348.851 989.113L351.634 990.195L354.363 991.230L358.192 992.648L362.460 994.181L367.274 995.861L372.115 997.493L376.972 999.074L381.720 1000.567L385.946 1001.853L389.645 1002.942L392.443 1003.745L395.216 1004.525L397.362 1005.115L400.015 1005.826L402.704 1006.515L406.431 1007.444L410.224 1008.359L414.004 1009.247L416.913 1009.907L419.735 1010.522L422.448 1011.088L425.565 1011.720L428.775 1012.349L431.933 1012.946L435.163 1013.535L438.327 1014.088L441.154 1014.566L443.866 1015.003L446.095 1015.344L448.649 1015.723L450.930 1016.048L453.580 1016.413L455.846 1016.711L458.424 1017.031L460.567 1017.286L463.101 1017.573L465.290 1017.813L467.921 1018.088L470.225 1018.321L472.873 1018.568L475.152 1018.765L477.745 1018.965L479.921 1019.119L482.464 1019.291L484.662 1019.440L487.298 1019.600L489.602 1019.719L492.218 1019.815L494.497 1019.874L497.062 1019.920L499.341 1019.946L501.906 1019.964L504.185 1019.972L506.750 1019.980L509.029 1019.987L511.595 1019.996L513.874 1020L516.439 1019.995L518.718 1019.976L521.283 1019.941L523.562 1019.903L526.127 1019.858L528.406 1019.815L530.971 1019.753L533.250 1019.677L535.861 1019.557L538.159 1019.424L540.784 1019.250L542.977 1019.095L545.519 1018.911L547.701 1018.748L550.305 1018.543L552.590 1018.352L555.236 1018.110L557.531 1017.879L560.152 1017.594L562.339 1017.347L564.881 1017.053L567.089 1016.792L569.732 1016.463L572.016 1016.165L574.588 1015.811L576.824 1015.487L579.446 1015.091L581.733 1014.736L584.338 1014.318L586.527 1013.957L589.141 1013.508L591.342 1013.122L593.970 1012.643L596.167 1012.226L598.810 1011.708L601.004 1011.266L603.615 1010.729L605.801 1010.270L608.492 1009.687L610.710 1009.197L613.381 1008.587L615.474 1008.097L618.097 1007.465L620.241 1006.938L622.931 1006.260L625.195 1005.677L627.864 1004.971L630.201 1004.340L632.832 1003.608L635.094 1002.965L637.620 1002.234L639.707 1001.624L642.264 1000.861L644.374 1000.219L647.061 999.376L649.208 998.686L651.915 997.797L654.057 997.083L656.759 996.167L658.899 995.433L661.631 994.473L663.934 993.640L666.751 992.598L669.145 991.697L671.789 990.693L674.043 989.829L676.557 988.849L678.673 988.012L681.220 986.974L683.479 986.033L686.287 984.840L688.647 983.826L691.298 982.669L693.530 981.676L696.166 980.478L698.494 979.405L701.157 978.160L703.883 976.863L706.998 975.356L710.254 973.748L713.472 972.119L716.681 970.457L719.878 968.758L723.215 966.943L726.972 964.847L730.717 962.723L734.314 960.648L737.070 959.032L739.755 957.421L742.119 955.981L744.895 954.263L747.300 952.755L750.047 951.004L752.235 949.595L754.951 947.816L757.042 946.429L759.795 944.576L761.859 943.166L764.653 941.230L767.294 939.357L770.642 936.957L773.843 934.621L776.666 932.539L779.304 930.551L781.494 928.876L784.108 926.846L786.693 924.797L789.839 922.272L793.060 919.638L796.345 916.905L799.563 914.175L802.707 911.457L805.514 908.998L808.312 906.497L810.695 904.332L813.253 901.972L815.373 899.988L817.724 897.754L819.893 895.660L822.433 893.168L824.652 890.961L827.035 888.557L829.013 886.531L831.337 884.105L833.441 881.866L835.902 879.203L838.092 876.794L840.533 874.068L842.595 871.734L844.824 869.179L846.692 867.006L848.873 864.434L850.775 862.156L852.953 859.519L854.700 857.376L856.723 854.862L858.389 852.759L860.474 850.093L862.257 847.781L864.335 845.055L865.983 842.862L867.927 840.239L869.439 838.171L871.346 835.532L872.880 833.377L874.811 830.634L876.451 828.262L878.276 825.598L879.851 823.261L881.534 820.732L883.068 818.397L884.718 815.849L886.228 813.480L887.890 810.835L889.343 808.493L890.982 805.815L892.554 803.195L894.403 800.084L896.243 796.926L897.843 794.153L899.344 791.496L900.485 789.445L901.837 786.983L903.025 784.784L904.495 782.017L905.763 779.577L907.142 776.891L908.242 774.715L909.543 772.127L910.671 769.836L911.966 767.174L913.008 764.985L914.242 762.370L915.306 760.067L916.558 757.308L917.520 755.140L918.634 752.609L919.532 750.531L920.679 747.845L921.659 745.497L922.803 742.702L923.676 740.522L924.715 737.887L925.514 735.824L926.541 733.131L927.321 731.041L928.316 728.327L929.071 726.221L930.009 723.561L930.755 721.380L931.660 718.687L932.437 716.311L933.317 713.595L934.066 711.236L934.877 708.644L935.555 706.401L936.334 703.774L937.017 701.413L937.793 698.718L938.399 696.565L939.087 694.044L939.625 692.010L940.337 689.235L941.011 686.512L941.825 683.153L942.573 679.960L943.191 677.272L943.757 674.703L944.205 672.613L944.761 669.929L945.224 667.616L945.782 664.734L946.298 661.975L946.887 658.761L947.434 655.654L947.889 652.994L948.307 650.386L948.650 648.154L949.050 645.448L949.381 643.122L949.731 640.527L950.004 638.396L950.306 635.893L950.567 633.651L950.862 630.934L951.099 628.620L951.347 626.002L951.540 623.894L951.764 621.363L951.953 619.162L952.175 616.445L952.360 614.089L952.564 611.425L952.731 609.146L952.907 606.572L953.047 604.306L953.187 601.784L953.292 599.635L953.398 597.126L953.481 594.871L953.567 592.159L953.631 589.820L953.687 587.189L953.721 584.930L953.744 582.359L953.750 580.080L953.742 577.515L953.722 575.236L953.686 572.671L953.642 570.392L953.581 567.817L953.519 565.572L953.434 562.980L953.351 560.733L953.233 558.088L953.120 555.845L952.971 553.260L952.832 551.021L952.663 548.450L952.503 546.171L952.302 543.596L952.105 541.353L951.858 538.769L951.632 536.539L951.360 533.907L951.128 531.665L950.845 529.054L950.589 526.839L950.262 524.245L949.967 522.023L949.608 519.381L949.301 517.168L948.919 514.534L948.581 512.324L948.159 509.666L947.793 507.460L947.344 504.837L946.951 502.635L946.465 499.988L946.049 497.791L945.537 495.178L945.091 492.988L944.539 490.347L944.068 488.161L943.490 485.549L942.997 483.386L942.382 480.761L941.841 478.517L941.181 475.842L940.583 473.473L939.896 470.831L939.256 468.442L938.528 465.802L937.865 463.428L937.120 460.832L936.485 458.651L935.726 456.135L935.053 453.940L934.236 451.339L933.482 448.980L932.625 446.358L931.824 443.961L930.962 441.428L930.147 439.083L929.271 436.603L928.434 434.279L927.530 431.810L926.669 429.495L925.736 427.035L924.844 424.718L923.856 422.202L922.950 419.921L921.933 417.411L921.069 415.305L920.004 412.770L919.045 410.525L917.830 407.732L916.793 405.383L915.616 402.759L914.600 400.528L913.353 397.839L912.259 395.514L910.984 392.853L909.733 390.300L908.193 387.196L906.564 383.977L904.874 380.695L903.188 377.486L901.516 374.367L899.983 371.544L898.461 368.801L897.089 366.368L895.551 363.681L893.957 360.948L892.177 357.934L890.357 354.909L888.689 352.171L887.034 349.506L885.540 347.139L883.902 344.587L882.375 342.247L880.704 339.721L879.151 337.399L877.452 334.889L875.865 332.579L874.016 329.932L871.936 327.013L869.294 323.365L866.515 319.591L863.823 315.994L861.666 313.161L859.705 310.633L857.978 308.444L856 305.975L854.093 303.630L851.813 300.865L849.432 298.034L846.746 294.890L844.027 291.768L841.567 288.980L839.087 286.227L836.916 283.870L834.545 281.344L832.491 279.195L830.218 276.852L828.108 274.705L825.630 272.222L823.331 269.958L820.812 267.521L818.629 265.455L816.236 263.234L814.032 261.231L811.448 258.909L809.048 256.777L806.418 254.460L804.147 252.483L801.666 250.354L799.385 248.424L796.808 246.270L794.496 244.357L791.901 242.242L789.182 240.065L786.043 237.583L782.877 235.121L780.106 232.994L777.374 230.940L774.497 228.824L770.850 226.189L767.026 223.474L763.331 220.900L760.377 218.889L757.624 217.063L754.790 215.229L751.180 212.932L746.967 210.319L742.818 207.797L739.065 205.623L736.431 204.134L734.575 203.144L733.570 202.576" stroke="#000000" stroke-width="45" fill="none" stroke-linecap="round" stroke-linejoin="round"/>
  </g>
</svg>