<svg xmlns="http://www.w3.org/2000/svg" viewBox="-47.5 -47.5 1119.0 1119.0" width="1024" height="1024">
  <g id="skeleton-paths" stroke-width="45.0">
    <path id="path-0-0" d="M123.104 406.157L124.399 404.863L126.208 403.054L128.577 400.685L131.338 397.924L133.893 395.369L136.790 392.472L139.371 389.891L142.277 386.985L144.858 384.404L147.763 381.499L150.344 378.918L153.250 376.013L155.831 373.432L158.736 370.526L161.317 367.945L164.222 365.040L166.804 362.459L169.709 359.554L172.290 356.973L175.195 354.068L177.776 351.486L180.682 348.581L183.263 346L186.168 343.095L188.749 340.514L191.654 337.609L194.236 335.028L197.141 332.122L199.722 329.541L202.627 326.636L205.208 324.055L208.114 321.150L210.695 318.569L213.600 315.664L216.181 313.082L219.087 310.177L221.668 307.596L224.573 304.691L227.154 302.110L230.059 299.205L232.640 296.624L235.546 293.718L238.127 291.137L241.032 288.232L243.613 285.651L246.519 282.746L249.100 280.165L252.005 277.260L254.586 274.678L257.491 271.773L260.073 269.192L262.978 266.287L265.559 263.706L268.464 260.801L271.045 258.220L273.951 255.314L276.532 252.733L279.437 249.828L282.018 247.247L284.923 244.342L287.505 241.761L290.410 238.856L292.991 236.274L295.896 233.369L298.477 230.788L301.383 227.883L303.964 225.302L306.869 222.397L309.450 219.816L312.356 216.910L314.937 214.329L317.842 211.424L320.423 208.843L323.328 205.938L325.909 203.357L328.815 200.452L331.396 197.870L334.301 194.965L336.882 192.384L339.788 189.479L342.369 186.898L345.274 183.993L347.855 181.412L350.760 178.506L353.342 175.925L356.247 173.020L358.828 170.439L361.733 167.534L364.314 164.953L367.220 162.047L369.801 159.466L372.706 156.561L375.287 153.980L378.192 151.075L380.774 148.494L383.679 145.589L386.260 143.008L389.165 140.102L391.746 137.521L394.652 134.616L397.233 132.035L400.138 129.130L402.719 126.549L405.625 123.643L408.206 121.062L411.111 118.157L413.692 115.576L416.597 112.671L419.178 110.090L422.084 107.185L424.665 104.604L427.570 101.698L430.151 99.117L433.057 96.212L435.638 93.631L438.543 90.726L441.124 88.145L444.029 85.239L446.611 82.658L449.516 79.753L452.097 77.172L455.002 74.267L457.583 71.686L460.489 68.781L463.070 66.200L465.975 63.294L468.556 60.713L471.461 57.808L474.043 55.227L476.948 52.322L479.529 49.741L482.434 46.835L485.015 44.254L487.921 41.349L490.502 38.768L493.399 35.871L495.933 33.337L498.673 30.597L500.356 28.914L501.970 27.301" stroke="#000000" stroke-width="45" fill="none" stroke-linecap="round" stroke-linejoin="round"/>
    <path id="path-1-0" d="M524.781 29.077L526.209 30.506L528.246 32.543L530.802 35.100L533.694 37.993L536.274 40.575L539.179 43.481L541.759 46.062L544.664 48.968L547.244 51.550L550.149 54.456L552.730 57.038L555.634 59.944L558.215 62.525L561.119 65.431L563.700 68.013L566.604 70.919L569.185 73.500L572.089 76.406L574.670 78.988L577.574 81.894L580.155 84.476L583.059 87.382L585.640 89.963L588.545 92.869L591.125 95.451L594.030 98.357L596.610 100.939L599.515 103.845L602.095 106.426L605 109.332L607.580 111.914L610.485 114.820L613.065 117.401L615.970 120.307L618.550 122.889L621.455 125.795L624.035 128.377L626.940 131.283L629.520 133.864L632.425 136.770L635.006 139.352L637.910 142.258L640.491 144.840L643.395 147.746L645.976 150.327L648.880 153.233L651.461 155.815L654.365 158.721L656.946 161.303L659.850 164.208L662.431 166.790L665.335 169.696L667.916 172.278L670.821 175.184L673.401 177.765L676.306 180.671L678.886 183.253L681.791 186.159L684.371 188.741L687.272 191.643L689.842 194.214L692.629 197.002L695.022 199.396L697.637 202.012L700.034 204.411L702.827 207.205L705.400 209.779L708.302 212.683L710.882 215.264L713.787 218.170L716.367 220.752L719.272 223.658L721.852 226.239L724.757 229.145L727.338 231.727L730.242 234.633L732.823 237.215L735.727 240.121L738.308 242.702L741.212 245.608L743.793 248.190L746.697 251.096L749.278 253.678L752.182 256.584L754.763 259.165L757.667 262.071L760.248 264.653L763.153 267.559L765.733 270.141L768.638 273.046L771.218 275.628L774.123 278.534L776.703 281.116L779.608 284.022L782.188 286.603L785.093 289.509L787.673 292.091L790.578 294.997L793.158 297.579L796.063 300.485L798.643 303.066L801.548 305.972L804.129 308.554L807.033 311.460L809.614 314.042L812.518 316.948L815.099 319.529L818.003 322.435L820.584 325.017L823.488 327.923L826.069 330.504L828.973 333.410L831.554 335.992L834.458 338.898L837.039 341.480L839.943 344.386L842.524 346.967L845.429 349.873L848.009 352.455L850.914 355.361L853.494 357.943L856.399 360.849L858.979 363.430L861.884 366.336L864.464 368.918L867.369 371.824L869.949 374.406L872.854 377.311L875.434 379.893L878.339 382.799L880.919 385.381L883.824 388.287L886.405 390.868L889.309 393.774L891.890 396.356L894.795 399.261L897.374 401.844L899.443 403.915L900.896 405.375" stroke="#000000" stroke-width="45" fill="none" stroke-linecap="round" stroke-linejoin="round"/>
    <path id="path-extension-1" d="M501.970 27.301L512.489 16.782" stroke="#000000" stroke-width="45" fill="none" stroke-linecap="round" stroke-linejoin="round"/>
    <path id="path-extension-2" d="M524.781 29.077L512.489 16.782" stroke="#000000" stroke-width="45" fill="none" stroke-linecap="round" stroke-linejoin="round"/>
    <path id="path-connection-1" d="M512.489 16.782L512.489 16.782" stroke="#000000" stroke-width="45" fill="none" stroke-linecap="round" stroke-linejoin="round"/>
  </g>
  <g id="skeleton-paths" stroke-width="45.0">
    <path id="path-0-0" d="M513.294 295.349L513.313 298.421L513.320 302.242L513.329 307.615L513.329 313.101L513.329 318.587L513.329 324.074L513.329 329.560L513.329 335.046L513.329 340.533L513.329 346.019L513.329 351.505L513.329 356.992L513.329 362.478L513.329 367.964L513.329 373.451L513.329 378.937L513.329 384.423L513.329 389.910L513.329 395.396L513.329 400.883L513.329 406.369L513.329 411.855L513.329 417.342L513.329 422.828L513.329 428.314L513.329 433.801L513.329 439.287L513.329 444.773L513.329 450.260L513.329 455.746L513.329 461.232L513.329 466.719L513.329 472.205L513.329 477.691L513.329 483.178L513.329 488.664L513.329 494.150L513.329 499.637L513.329 505.123L513.329 510.610L513.329 516.096L513.329 521.582L513.329 527.069L513.329 532.555L513.329 538.041L513.329 543.528L513.329 549.014L513.329 554.500L513.329 559.987L513.329 565.473L513.329 570.959L513.329 576.446L513.329 581.932L513.329 587.418L513.329 592.905L513.329 598.391L513.329 603.877L513.329 609.364L513.329 614.850L513.329 620.337L513.329 625.823L513.329 631.309L513.329 636.796L513.329 642.282L513.329 647.768L513.329 653.255L513.329 658.741L513.329 664.227L513.329 669.714L513.329 675.200L513.329 680.686L513.329 686.173L513.329 691.659L513.329 697.145L513.329 702.632L513.329 708.118L513.329 713.604L513.329 719.091L513.329 724.577L513.329 730.063L513.329 735.550L513.329 741.036L513.329 746.523L513.329 752.009L513.329 757.495L513.329 762.982L513.329 768.468L513.329 773.954L513.329 779.441L513.329 784.927L513.329 790.413L513.329 795.900L513.329 801.386L513.329 806.872L513.329 812.359L513.329 817.845L513.329 823.331L513.329 828.818L513.329 834.304L513.329 839.790L513.329 845.277L513.329 850.763L513.329 856.250L513.329 861.736L513.329 867.222L513.329 872.709L513.329 878.195L513.329 883.681L513.329 889.168L513.329 894.654L513.329 900.140L513.329 905.627L513.329 911.113L513.329 916.599L513.329 922.086L513.329 927.572L513.329 933.058L513.329 938.545L513.329 944.031L513.329 949.517L513.329 955.004L513.329 960.490L513.329 965.977L513.329 971.463L513.329 976.949L513.329 982.436L513.329 987.922L513.329 993.408L513.329 998.895L513.329 1004.381L513.329 1009.753L513.333 1014.595L513.336 1017.847L513.345 1020" stroke="#000000" stroke-width="45" fill="none" stroke-linecap="round" stroke-linejoin="round"/>
  </g>
</svg>